<svg width="20" height="20" viewBox="0 0 20 20" fill="none" xmlns="http://www.w3.org/2000/svg">
<path d="M16.9036 4.39326H7.97932C7.73397 3.66455 7.04471 3.13806 6.23432 3.13806C5.42393 3.13806 4.73467 3.66455 4.48932 4.39326H3.09631C2.77272 4.39326 2.51038 4.6556 2.51038 4.97919C2.51038 5.30279 2.77272 5.56513 3.09631 5.56513H4.48936C4.73471 6.29384 5.42397 6.82033 6.23436 6.82033C7.04475 6.82033 7.73401 6.29384 7.97936 5.56513H16.9036C17.2272 5.56513 17.4896 5.30279 17.4896 4.97919C17.4896 4.6556 17.2272 4.39326 16.9036 4.39326ZM6.23432 5.64845C5.8653 5.64845 5.56506 5.34822 5.56506 4.97919C5.56506 4.61017 5.8653 4.30994 6.23432 4.30994C6.60334 4.30994 6.90358 4.61017 6.90358 4.97919C6.90358 5.34822 6.60334 5.64845 6.23432 5.64845Z" fill="#454545"/>
<path d="M16.9036 9.41413H15.5105C15.2652 8.68542 14.5759 8.15894 13.7655 8.15894C12.9552 8.15894 12.2659 8.68542 12.0206 9.41413H3.09631C2.77272 9.41413 2.51038 9.67647 2.51038 10.0001C2.51038 10.3237 2.77272 10.586 3.09631 10.586H12.0206C12.2659 11.3147 12.9552 11.8412 13.7656 11.8412C14.5759 11.8412 15.2652 11.3147 15.5106 10.586H16.9036C17.2272 10.586 17.4896 10.3237 17.4896 10.0001C17.4896 9.67647 17.2272 9.41413 16.9036 9.41413ZM13.7656 10.6693C13.3965 10.6693 13.0963 10.3691 13.0963 10.0001C13.0963 9.63104 13.3965 9.33081 13.7656 9.33081C14.1346 9.33081 14.4348 9.63104 14.4348 10.0001C14.4348 10.3691 14.1346 10.6693 13.7656 10.6693Z" fill="#454545"/>
<path d="M16.9036 14.4349H10.4898C10.2444 13.7062 9.55514 13.1797 8.74475 13.1797C7.93436 13.1797 7.2451 13.7062 6.99975 14.4349H3.09631C2.77272 14.4349 2.51038 14.6972 2.51038 15.0208C2.51038 15.3444 2.77272 15.6068 3.09631 15.6068H6.99975C7.2451 16.3355 7.93436 16.862 8.74475 16.862C9.55514 16.862 10.2444 16.3355 10.4898 15.6068H16.9036C17.2272 15.6068 17.4896 15.3444 17.4896 15.0208C17.4896 14.6972 17.2272 14.4349 16.9036 14.4349ZM8.74475 15.6901C8.37573 15.6901 8.07549 15.3899 8.07549 15.0209C8.07549 14.6518 8.37573 14.3516 8.74475 14.3516C9.11377 14.3516 9.41401 14.6518 9.41401 15.0208C9.41401 15.3898 9.11377 15.6901 8.74475 15.6901Z" fill="#454545"/>
</svg>
