<svg width="10" height="10" viewBox="0 0 10 10" fill="none" xmlns="http://www.w3.org/2000/svg">
<path d="M3.50977 0.990234C3.84961 1.37695 4.01953 1.90039 4.01953 2.56055C4.01953 3.2207 3.84961 3.74609 3.50977 4.13672C3.16992 4.52734 2.71484 4.72266 2.14453 4.72266C1.57422 4.72266 1.11914 4.52734 0.779297 4.13672C0.443359 3.74609 0.275391 3.2207 0.275391 2.56055C0.275391 1.90039 0.443359 1.37695 0.779297 0.990234C1.11914 0.599609 1.57422 0.404297 2.14453 0.404297C2.71484 0.404297 3.16992 0.599609 3.50977 0.990234ZM2.14453 3.80273C2.36328 3.80273 2.5332 3.69336 2.6543 3.47461C2.7793 3.25195 2.8418 2.94727 2.8418 2.56055C2.8418 2.16992 2.7793 1.86523 2.6543 1.64648C2.5332 1.42383 2.36328 1.3125 2.14453 1.3125C1.92969 1.3125 1.75977 1.42383 1.63477 1.64648C1.51367 1.86523 1.45312 2.16992 1.45312 2.56055C1.45312 2.94727 1.51367 3.25195 1.63477 3.47461C1.75977 3.69336 1.92969 3.80273 2.14453 3.80273ZM2.26172 9H0.984375L4.25977 4.51758L7.16602 0.544922H8.43164L5.24414 4.91016L2.26172 9ZM8.63672 5.37305C8.97656 5.76367 9.14648 6.28906 9.14648 6.94922C9.14648 7.60938 8.97656 8.13477 8.63672 8.52539C8.29688 8.91211 7.8418 9.10547 7.27148 9.10547C6.70117 9.10547 6.24609 8.91211 5.90625 8.52539C5.57031 8.13477 5.40234 7.60938 5.40234 6.94922C5.40234 6.28906 5.57031 5.76367 5.90625 5.37305C6.24609 4.98242 6.70117 4.78711 7.27148 4.78711C7.8418 4.78711 8.29688 4.98242 8.63672 5.37305ZM6.76172 7.85742C6.88672 8.08008 7.05664 8.19141 7.27148 8.19141C7.48633 8.19141 7.65625 8.08008 7.78125 7.85742C7.90625 7.63477 7.96875 7.33008 7.96875 6.94336C7.96875 6.55664 7.90625 6.25195 7.78125 6.0293C7.65625 5.80664 7.48633 5.69531 7.27148 5.69531C7.05664 5.69531 6.88672 5.80664 6.76172 6.0293C6.64062 6.25195 6.58008 6.55664 6.58008 6.94336C6.58008 7.33008 6.64062 7.63477 6.76172 7.85742Z" fill="white"/>
</svg>
