<svg width="20" height="20" viewBox="0 0 20 20" fill="none" xmlns="http://www.w3.org/2000/svg">
<path d="M7.14939 4.8313C6.57654 2.92179 8.00641 1 10 1V1C11.9936 1 13.4235 2.92179 12.8506 4.8313L11.2873 10.0422C11.2171 10.2762 11.182 10.3932 11.128 10.4895C10.989 10.7371 10.7513 10.9139 10.4743 10.9759C10.3664 11 10.2443 11 10 11V11C9.7557 11 9.63355 11 9.52574 10.9759C9.24867 10.9139 9.01101 10.7371 8.87203 10.4895C8.81795 10.3932 8.78285 10.2762 8.71265 10.0422L7.14939 4.8313Z" stroke="#F95738" stroke-width="2"/>
<circle cx="10" cy="16" r="2" stroke="#F95738" stroke-width="2"/>
</svg>
