<svg width="15" height="15" viewBox="0 0 15 15" fill="none" xmlns="http://www.w3.org/2000/svg">
<g clip-path="url(#clip0_4602_14710)">
<path d="M10.0718 0.555664C10.1056 0.555664 10.1395 0.555664 10.1753 0.555664C10.2583 1.55865 9.86676 2.30807 9.39091 2.85078C8.92401 3.38974 8.28466 3.91247 7.25058 3.83315C7.1816 2.84453 7.57377 2.15069 8.04897 1.60923C8.48969 1.10462 9.29766 0.655587 10.0718 0.555664Z" fill="white"/>
<path d="M13.2021 10.9952C13.2021 11.0052 13.2021 11.0139 13.2021 11.0233C12.9115 11.8839 12.497 12.6214 11.9911 13.3059C11.5293 13.9273 10.9634 14.7635 9.95299 14.7635C9.07986 14.7635 8.49991 14.2146 7.60507 14.1996C6.6585 14.1846 6.13794 14.6586 5.27249 14.7779C5.17348 14.7779 5.07448 14.7779 4.9774 14.7779C4.34188 14.688 3.82899 14.1958 3.45534 13.7524C2.35356 12.4422 1.50215 10.7497 1.34375 8.5839C1.34375 8.37156 1.34375 8.15985 1.34375 7.94751C1.41082 6.39745 2.18111 5.13716 3.20497 4.52638C3.74532 4.20163 4.48814 3.92496 5.31528 4.04862C5.66977 4.10233 6.03192 4.22099 6.34936 4.3384C6.65019 4.45144 7.0264 4.65191 7.3828 4.64129C7.62423 4.63442 7.86439 4.51139 8.10774 4.42458C8.82055 4.1729 9.5193 3.88437 10.4403 4.01989C11.5472 4.18352 12.3328 4.6644 12.8183 5.40633C11.8819 5.98901 11.1416 6.86709 11.2681 8.36656C11.3805 9.72864 12.1904 10.5255 13.2021 10.9952Z" fill="white"/>
</g>
<defs>
<clipPath id="clip0_4602_14710">
<rect width="14.5455" height="14.2222" fill="white" transform="translate(0 0.555664)"/>
</clipPath>
</defs>
</svg>
