<svg width="24" height="24" viewBox="0 0 24 24" fill="none" xmlns="http://www.w3.org/2000/svg">
<path fill-rule="evenodd" clip-rule="evenodd" d="M14.6845 2.47362C13.9235 2.16764 13.0942 2 12.2292 2C8.8731 2 6.05373 4.52345 5.68312 7.85899L5.43132 10.1252L5.42527 10.1793C5.31244 11.1625 4.9924 12.1106 4.48627 12.9611L4.45832 13.0077L3.88029 13.9711L3.85614 14.0114C3.61462 14.4138 3.3958 14.7785 3.25005 15.0879C3.10193 15.4024 2.94356 15.8286 3.01979 16.3117C3.09514 16.7893 3.34092 17.2233 3.71164 17.5337C4.08671 17.8476 4.53359 17.931 4.87948 17.9658C5.21985 18.0001 5.6451 18 6.11449 18L6.16139 18H18.2969L18.3438 18C18.8132 18 19.2385 18.0001 19.5788 17.9658C19.9247 17.931 20.3716 17.8476 20.7467 17.5337C21.1174 17.2233 21.3632 16.7893 21.4385 16.3117C21.5148 15.8286 21.3564 15.4024 21.2083 15.0879C21.0625 14.7785 20.8437 14.4138 20.6022 14.0114L20.578 13.9711L20 13.0077L19.9721 12.9611C19.5933 12.3247 19.3188 11.6336 19.1573 10.914C18.8565 10.9705 18.5463 11 18.2292 11C17.8452 11 17.4713 10.9567 17.1122 10.8748C17.2968 11.9715 17.6832 13.0259 18.2534 13.9839L18.285 14.0367L18.863 15.0001C19.1365 15.456 19.3014 15.733 19.3989 15.9401C19.4042 15.9514 19.4091 15.9621 19.4136 15.972C19.4027 15.9733 19.3911 15.9746 19.3786 15.9759C19.1509 15.9988 18.8285 16 18.2969 16H6.16139C5.6298 16 5.30742 15.9988 5.07968 15.9759C5.06722 15.9746 5.05558 15.9733 5.04471 15.972C5.0492 15.9621 5.05409 15.9514 5.05942 15.9401C5.15695 15.733 5.32177 15.456 5.59527 15.0001L6.17331 14.0367L6.20494 13.9839C6.85568 12.8904 7.26716 11.6714 7.41223 10.4073L7.41908 10.3461L7.67089 8.07985C7.92896 5.75718 9.8922 4 12.2292 4C12.6922 4 13.1405 4.06898 13.5639 4.19767C13.8158 3.54594 14.2004 2.96023 14.6845 2.47362ZM17.2113 4.27804C16.6233 4.62632 16.2292 5.26713 16.2292 6C16.2292 6.14503 16.2446 6.28645 16.2739 6.42272C16.3943 6.6476 16.4967 6.88404 16.5789 7.13021C16.9393 7.65547 17.544 8 18.2292 8C18.421 8 18.6066 7.97298 18.7823 7.92254L18.7752 7.85899C18.623 6.48875 18.0575 5.25555 17.2113 4.27804Z" fill="#5C6784"/>
<path d="M9.33123 17.6647C9.50215 18.6215 9.87879 19.467 10.4027 20.0701C10.9267 20.6731 11.5686 21 12.229 21C12.8894 21 13.5314 20.6731 14.0553 20.0701C14.5792 19.467 14.9559 18.6215 15.1268 17.6647" stroke="#5C6784" stroke-width="2" stroke-linecap="round"/>
<circle cx="18.229" cy="6" r="2.5" fill="#5C6784" stroke="#5C6784"/>
</svg>
