<svg width="17" height="17" viewBox="0 0 17 17" fill="none" xmlns="http://www.w3.org/2000/svg">
<g clip-path="url(#clip0_2510_5576)">
<path d="M12.8394 10.1071C11.6578 10.1071 10.6965 11.0684 10.6965 12.25C10.6965 13.4316 11.6578 14.3928 12.8394 14.3928C14.0212 14.3928 14.9823 13.4316 14.9823 12.25C14.9823 11.0684 14.021 10.1071 12.8394 10.1071ZM12.8394 13.3214C12.2485 13.3214 11.768 12.8409 11.768 12.25C11.768 11.6591 12.2485 11.1785 12.8394 11.1785C13.4303 11.1785 13.9108 11.6591 13.9108 12.25C13.9108 12.8409 13.4303 13.3214 12.8394 13.3214Z" fill="white"/>
<path d="M5.51786 10.1071C4.33626 10.1071 3.375 11.0684 3.375 12.25C3.375 13.4316 4.33626 14.3928 5.51786 14.3928C6.69946 14.3928 7.66073 13.4316 7.66073 12.25C7.66073 11.0684 6.69946 10.1071 5.51786 10.1071ZM5.51786 13.3214C4.92698 13.3214 4.44643 12.8409 4.44643 12.25C4.44643 11.6591 4.92698 11.1785 5.51786 11.1785C6.10858 11.1785 6.58929 11.6591 6.58929 12.25C6.58929 12.8409 6.10875 13.3214 5.51786 13.3214Z" fill="white"/>
<path d="M14.2824 3.97357C14.1913 3.79268 14.0061 3.67856 13.8036 3.67856H10.9822V4.74999H13.4732L14.932 7.65141L15.8895 7.16997L14.2824 3.97357Z" fill="white"/>
<path d="M11.232 11.7322H7.17847V12.8036H11.232V11.7322Z" fill="white"/>
<path d="M3.91064 11.7322H2.05352C1.75762 11.7322 1.51782 11.972 1.51782 12.2679C1.51782 12.5638 1.75765 12.8036 2.05352 12.8036H3.91067C4.20658 12.8036 4.44637 12.5637 4.44637 12.2679C4.44637 11.972 4.20655 11.7322 3.91064 11.7322Z" fill="white"/>
<path d="M16.8874 8.45714L15.8337 7.09999C15.7325 6.96927 15.5762 6.89284 15.4107 6.89284H11.5178V3.14285C11.5178 2.84694 11.278 2.60715 10.9821 2.60715H2.05352C1.75762 2.60715 1.51782 2.84697 1.51782 3.14285C1.51782 3.43872 1.75765 3.67855 2.05352 3.67855H10.4464V7.42854C10.4464 7.72445 10.6862 7.96424 10.9821 7.96424H15.1483L15.9285 8.96923V11.7321H14.4464C14.1504 11.7321 13.9107 11.9719 13.9107 12.2678C13.9107 12.5637 14.1505 12.8035 14.4464 12.8035H16.4642C16.7601 12.8035 16.9999 12.5637 16.9999 12.2678V8.78572C16.9999 8.66678 16.9603 8.55107 16.8874 8.45714Z" fill="white"/>
<path d="M3.875 9.01789H1.4107C1.11479 9.01789 0.875 9.25772 0.875 9.55359C0.875 9.8495 1.11483 10.0893 1.4107 10.0893H3.87497C4.17087 10.0893 4.41067 9.84946 4.41067 9.55359C4.4107 9.25772 4.17087 9.01789 3.875 9.01789Z" fill="white"/>
<path d="M5.10714 6.9107H0.535699C0.239826 6.9107 0 7.15052 0 7.44643C0 7.74234 0.239826 7.98213 0.535699 7.98213H5.10714C5.40305 7.98213 5.64284 7.7423 5.64284 7.44643C5.64284 7.15056 5.40305 6.9107 5.10714 6.9107Z" fill="white"/>
<path d="M5.98214 4.80355H1.4107C1.11479 4.80355 0.875 5.04338 0.875 5.33925C0.875 5.63516 1.11483 5.87495 1.4107 5.87495H5.98214C6.27805 5.87495 6.51784 5.63512 6.51784 5.33925C6.51787 5.04338 6.27805 4.80355 5.98214 4.80355Z" fill="white"/>
</g>
<defs>
<clipPath id="clip0_2510_5576">
<rect width="17" height="17" fill="white"/>
</clipPath>
</defs>
</svg>
