<svg width="18" height="17" viewBox="0 0 18 17" fill="none" xmlns="http://www.w3.org/2000/svg">
<g clip-path="url(#clip0_1962_2061)">
<path d="M13.5222 10.1071C12.3105 10.1071 11.3248 11.0684 11.3248 12.25C11.3248 13.4316 12.3105 14.3928 13.5222 14.3928C14.734 14.3928 15.7195 13.4316 15.7195 12.25C15.7195 11.0684 14.7338 10.1071 13.5222 10.1071ZM13.5222 13.3214C12.9162 13.3214 12.4235 12.8409 12.4235 12.25C12.4235 11.6591 12.9162 11.1785 13.5222 11.1785C14.1281 11.1785 14.6209 11.6591 14.6209 12.25C14.6209 12.8409 14.1281 13.3214 13.5222 13.3214Z" fill="white"/>
<path d="M6.01447 10.1071C4.8028 10.1071 3.81708 11.0684 3.81708 12.25C3.81708 13.4316 4.8028 14.3928 6.01447 14.3928C7.22613 14.3928 8.21186 13.4316 8.21186 12.25C8.21186 11.0684 7.22613 10.1071 6.01447 10.1071ZM6.01447 13.3214C5.40855 13.3214 4.91577 12.8409 4.91577 12.25C4.91577 11.6591 5.40855 11.1785 6.01447 11.1785C6.62021 11.1785 7.11316 11.6591 7.11316 12.25C7.11316 12.8409 6.62038 13.3214 6.01447 13.3214Z" fill="white"/>
<path d="M15.002 3.9736C14.9086 3.79271 14.7187 3.67859 14.511 3.67859H11.6178V4.75002H14.1722L15.6681 7.65144L16.65 7.17L15.002 3.9736Z" fill="white"/>
<path d="M11.8742 11.7322H7.71747V12.8036H11.8742V11.7322Z" fill="white"/>
<path d="M4.36642 11.7322H2.46205C2.15861 11.7322 1.91272 11.972 1.91272 12.2679C1.91272 12.5638 2.15865 12.8036 2.46205 12.8036H4.36646C4.66989 12.8036 4.91579 12.5637 4.91579 12.2679C4.91579 11.972 4.66986 11.7322 4.36642 11.7322Z" fill="white"/>
<path d="M17.6734 8.45711L16.5929 7.09996C16.4891 6.96924 16.3288 6.89281 16.1591 6.89281H12.1672V3.14282C12.1672 2.84691 11.9212 2.60712 11.6178 2.60712H2.46205C2.15861 2.60712 1.91272 2.84694 1.91272 3.14282C1.91272 3.43869 2.15865 3.67852 2.46205 3.67852H11.0685V7.42851C11.0685 7.72441 11.3144 7.96421 11.6178 7.96421H15.8901L16.6901 8.9692V11.7321H15.1702C14.8668 11.7321 14.6209 11.9719 14.6209 12.2678C14.6209 12.5637 14.8668 12.8035 15.1702 12.8035H17.2394C17.5429 12.8035 17.7887 12.5636 17.7888 12.2678V8.78569C17.7888 8.66675 17.7481 8.55104 17.6734 8.45711Z" fill="white"/>
<path d="M4.32982 9.01788H1.80281C1.49937 9.01788 1.25348 9.25771 1.25348 9.55358C1.25348 9.84949 1.49941 10.0893 1.80281 10.0893H4.32978C4.63322 10.0893 4.87911 9.84945 4.87911 9.55358C4.87915 9.25771 4.63322 9.01788 4.32982 9.01788Z" fill="white"/>
<path d="M5.59329 6.91071H0.905531C0.60213 6.91071 0.356201 7.15053 0.356201 7.44644C0.356201 7.74234 0.60213 7.98214 0.905531 7.98214H5.59329C5.89673 7.98214 6.14262 7.74231 6.14262 7.44644C6.14262 7.15056 5.89673 6.91071 5.59329 6.91071Z" fill="white"/>
<path d="M6.49057 4.80353H1.80281C1.49937 4.80353 1.25348 5.04335 1.25348 5.33923C1.25348 5.63513 1.49941 5.87493 1.80281 5.87493H6.49057C6.79401 5.87493 7.0399 5.6351 7.0399 5.33923C7.03994 5.04335 6.79401 4.80353 6.49057 4.80353Z" fill="white"/>
</g>
<defs>
<clipPath id="clip0_1962_2061">
<rect width="17.4326" height="17" fill="white" transform="translate(0.356201)"/>
</clipPath>
</defs>
</svg>
