<svg width="26" height="25" viewBox="0 0 26 25" fill="none" xmlns="http://www.w3.org/2000/svg">
<path d="M25.9627 9.37923C25.8731 9.10457 25.6348 8.90441 25.3479 8.86294L17.2877 7.69649L13.6831 0.422835C13.5548 0.163905 13.29 0 13 0C12.7101 0 12.4453 0.163905 12.317 0.422835L8.71214 7.69649L0.652174 8.86294C0.365312 8.90441 0.126895 9.10458 0.0373174 9.37918C-0.0523112 9.65384 0.0224385 9.9553 0.230082 10.1568L6.06219 15.8186L4.68561 23.8132C4.63656 24.0978 4.75407 24.3854 4.98862 24.5552C5.12131 24.6511 5.27848 24.7 5.43641 24.7C5.55768 24.7 5.67935 24.6712 5.79076 24.6129L13 20.8383L20.2089 24.6128C20.4656 24.7472 20.7766 24.7248 21.0111 24.5551C21.2457 24.3854 21.3632 24.0977 21.3142 23.8131L19.9372 15.8186L25.77 10.1568C25.9776 9.9553 26.0524 9.65384 25.9627 9.37923Z" fill="#EE964B"/>
</svg>
