<svg width="24" height="24" viewBox="0 0 24 24" fill="none" xmlns="http://www.w3.org/2000/svg">
<path d="M5.54289 20.0404L5.18934 20.394L5.54289 20.0404ZM19.0404 20.0404L18.6869 19.6869L19.0404 20.0404ZM18.8333 10.0417V18.3333H19.8333V10.0417H18.8333ZM17.3333 19.8333H7.25V20.8333H17.3333V19.8333ZM5.75 18.3333V10.0417H4.75V18.3333H5.75ZM7.25 19.8333C6.76446 19.8333 6.4506 19.8323 6.21935 19.8012C6.00248 19.772 5.93451 19.7249 5.89645 19.6869L5.18934 20.394C5.44417 20.6488 5.75835 20.7482 6.0861 20.7923C6.39948 20.8344 6.79273 20.8333 7.25 20.8333V19.8333ZM4.75 18.3333C4.75 18.7906 4.74894 19.1838 4.79107 19.4972C4.83514 19.825 4.93451 20.1392 5.18934 20.394L5.89645 19.6869C5.85838 19.6488 5.81131 19.5808 5.78215 19.364C5.75106 19.1327 5.75 18.8189 5.75 18.3333H4.75ZM18.8333 18.3333C18.8333 18.8189 18.8323 19.1327 18.8012 19.364C18.772 19.5808 18.7249 19.6488 18.6869 19.6869L19.394 20.394C19.6488 20.1392 19.7482 19.825 19.7923 19.4972C19.8344 19.1838 19.8333 18.7906 19.8333 18.3333H18.8333ZM17.3333 20.8333C17.7906 20.8333 18.1839 20.8344 18.4972 20.7923C18.825 20.7482 19.1392 20.6488 19.394 20.394L18.6869 19.6869C18.6488 19.7249 18.5808 19.772 18.364 19.8012C18.1327 19.8323 17.8189 19.8333 17.3333 19.8333V20.8333Z" fill="#212121"/>
<path d="M11.5833 13.7917H12.9999V12.7917H11.5833V13.7917ZM14.4999 15.2917V19.7917H15.4999V15.2917H14.4999ZM9.08325 15.2917V19.7917H10.0833V15.2917H9.08325ZM12.9999 13.7917C13.8283 13.7917 14.4999 14.4632 14.4999 15.2917H15.4999C15.4999 13.9109 14.3806 12.7917 12.9999 12.7917V13.7917ZM11.5833 12.7917C10.2025 12.7917 9.08325 13.9109 9.08325 15.2917H10.0833C10.0833 14.4632 10.7548 13.7917 11.5833 13.7917V12.7917Z" fill="#212121"/>
<path d="M12.6357 8.8042L12.1387 8.85941L12.6357 8.8042ZM13.0615 10.3285L12.728 10.701L13.0615 10.3285ZM11.9477 8.8042L11.4507 8.74898L11.9477 8.8042ZM11.5219 10.3285L11.8553 10.701L11.5219 10.3285ZM16.7001 10.2091L16.3101 9.8962L16.7001 10.2091ZM7.95752 8.14947L7.46943 8.04101L7.95752 8.14947ZM7.88324 10.2091L8.27326 9.8962L7.88324 10.2091ZM8.217 6.56678L8.06045 7.04164L8.217 6.56678ZM18.6259 10.5451L18.7629 10.0642L18.6259 10.5451ZM17.8589 9.70344L18.3158 9.50037L17.8589 9.70344ZM18.1323 10.2243L17.7485 10.5448L18.1323 10.2243ZM16.8947 7.53395L16.4378 7.73702L16.8947 7.53395ZM16.5167 7.65856L16.0286 7.76703L16.5167 7.65856ZM16.3663 6.56678L16.2098 6.09192L16.3663 6.56678ZM5.95747 10.5451L5.82047 10.0642L5.95747 10.5451ZM6.45101 10.2243L6.83478 10.5448L6.45101 10.2243ZM12.0929 7.49732L11.5959 7.44211L12.0929 7.49732ZM12.4904 7.49732L12.9874 7.44211L12.4904 7.49732ZM12.2917 6.51387V7.01387V6.51387ZM3.32769 7.4854L2.86811 7.28844L3.32769 7.4854ZM2.77858 9.18959L3.27732 9.15417L2.77858 9.18959ZM21.2556 7.4854L20.7961 7.68236L21.2556 7.4854ZM21.8048 9.18959L21.306 9.15417L21.8048 9.18959ZM20.9956 10.4167L21.2246 10.8612L20.9956 10.4167ZM19.1155 3.33032L18.8403 3.74774L19.1155 3.33032ZM4.211 5.42432L3.75143 5.22736L4.211 5.42432ZM5.46781 3.33032L5.19256 2.9129L5.46781 3.33032ZM7.88758 3.5H16.6957V2.5H7.88758V3.5ZM19.9128 5.62128L20.7961 7.68236L21.7152 7.28844L20.8319 5.22736L19.9128 5.62128ZM3.78726 7.68236L4.67058 5.62128L3.75143 5.22736L2.86811 7.28844L3.78726 7.68236ZM18.3158 9.50037L17.3516 7.33088L16.4378 7.73702L17.402 9.90651L18.3158 9.50037ZM7.23171 7.33088L6.26749 9.50037L7.1813 9.90651L8.14552 7.73702L7.23171 7.33088ZM8.44562 8.25794L8.55471 7.76702L7.57852 7.55009L7.46943 8.04101L8.44562 8.25794ZM16.0286 7.76703L16.1377 8.25794L17.1139 8.04101L17.0048 7.5501L16.0286 7.76703ZM11.5959 7.44211L11.4507 8.74898L12.4446 8.85941L12.5898 7.55254L11.5959 7.44211ZM9.95991 10.0833H9.9099V11.0833H9.95991V10.0833ZM14.6734 10.0833H14.6234V11.0833H14.6734V10.0833ZM13.1326 8.74898L12.9874 7.44211L11.9935 7.55254L12.1387 8.85941L13.1326 8.74898ZM14.6234 10.0833C14.1844 10.0833 13.9028 10.0824 13.6935 10.0555C13.4983 10.0305 13.4329 9.98992 13.3949 9.9559L12.728 10.701C12.9747 10.9219 13.2646 11.0087 13.5663 11.0474C13.854 11.0843 14.211 11.0833 14.6234 11.0833V10.0833ZM12.1387 8.85941C12.1843 9.26934 12.2227 9.62428 12.2911 9.90607C12.3629 10.2017 12.4812 10.4802 12.728 10.701L13.3949 9.9559C13.3569 9.92188 13.3093 9.86136 13.2629 9.67013C13.2131 9.46507 13.1811 9.18531 13.1326 8.74898L12.1387 8.85941ZM11.4507 8.74898C11.4023 9.18531 11.3702 9.46507 11.3204 9.67013C11.274 9.86136 11.2264 9.92188 11.1884 9.9559L11.8553 10.701C12.1021 10.4802 12.2204 10.2017 12.2922 9.90607C12.3606 9.62428 12.3991 9.26934 12.4446 8.85941L11.4507 8.74898ZM9.95991 11.0833C10.3724 11.0833 10.7294 11.0843 11.017 11.0474C11.3187 11.0087 11.6086 10.9219 11.8553 10.701L11.1884 9.9559C11.1504 9.98992 11.085 10.0305 10.8898 10.0555C10.6805 10.0824 10.3989 10.0833 9.95991 10.0833V11.0833ZM16.1377 8.25794C16.2659 8.83495 16.3491 9.21472 16.3706 9.49812C16.3911 9.76809 16.3462 9.8511 16.3101 9.8962L17.0901 10.5219C17.3542 10.1927 17.397 9.80773 17.3677 9.42237C17.3395 9.05042 17.2354 8.58754 17.1139 8.04101L16.1377 8.25794ZM14.6734 11.0833C15.2333 11.0833 15.7077 11.0846 16.077 11.0315C16.4595 10.9764 16.8261 10.8511 17.0901 10.5219L16.3101 9.8962C16.2739 9.94129 16.2026 10.0031 15.9346 10.0416C15.6533 10.0821 15.2645 10.0833 14.6734 10.0833V11.0833ZM7.46943 8.04101C7.34798 8.58754 7.24386 9.05042 7.2156 9.42237C7.18633 9.80773 7.22916 10.1927 7.49322 10.5219L8.27326 9.8962C8.23709 9.8511 8.19222 9.76809 8.21273 9.49812C8.23426 9.21472 8.31739 8.83495 8.44562 8.25794L7.46943 8.04101ZM9.9099 10.0833C9.31882 10.0833 8.93005 10.0821 8.64873 10.0416C8.38074 10.0031 8.30943 9.94129 8.27326 9.8962L7.49322 10.5219C7.75728 10.8511 8.12383 10.9764 8.50637 11.0315C8.87559 11.0846 9.35003 11.0833 9.9099 11.0833V10.0833ZM8.14552 7.73702C8.29621 7.39796 8.3992 7.16684 8.47475 7.02165C8.51461 6.94503 8.531 6.92388 8.52744 6.92826C8.52678 6.92907 8.49749 6.96681 8.43794 7.00235C8.36996 7.04291 8.22928 7.0973 8.06045 7.04164L8.37354 6.09192C8.18323 6.02918 8.01914 6.08774 7.9255 6.14362C7.84028 6.19448 7.78307 6.25867 7.75189 6.29698C7.68728 6.37635 7.63226 6.47432 7.58764 6.56009C7.49422 6.73964 7.37598 7.00627 7.23171 7.33088L8.14552 7.73702ZM8.55471 7.76702C8.63177 7.42026 8.69528 7.13559 8.72695 6.93568C8.74208 6.84019 8.75611 6.72871 8.75138 6.62648C8.74909 6.57714 8.74127 6.49151 8.703 6.39994C8.66095 6.29932 8.56386 6.15466 8.37354 6.09192L8.06045 7.04164C7.89162 6.98599 7.81087 6.8586 7.78034 6.78556C7.7536 6.72157 7.7525 6.67382 7.75245 6.67278C7.75219 6.66713 7.75279 6.69389 7.73928 6.77919C7.71366 6.94085 7.65901 7.18789 7.57852 7.55009L8.55471 7.76702ZM19.2129 10.0833C18.8808 10.0833 18.8139 10.0787 18.7629 10.0642L18.4889 11.0259C18.7065 11.0879 18.9414 11.0833 19.2129 11.0833V10.0833ZM17.402 9.90651C17.5123 10.1546 17.6035 10.3711 17.7485 10.5448L18.5161 9.90383C18.4821 9.86308 18.4507 9.80388 18.3158 9.50037L17.402 9.90651ZM18.7629 10.0642C18.6664 10.0367 18.5804 9.98083 18.5161 9.90383L17.7485 10.5448C17.9415 10.7758 18.1994 10.9435 18.4889 11.0259L18.7629 10.0642ZM17.3516 7.33088C17.2074 7.00627 17.0891 6.73964 16.9957 6.56009C16.9511 6.47432 16.8961 6.37635 16.8314 6.29698C16.8003 6.25867 16.7431 6.19448 16.6578 6.14362C16.5642 6.08774 16.4001 6.02918 16.2098 6.09192L16.5229 7.04164C16.354 7.0973 16.2134 7.04291 16.1454 7.00235C16.0858 6.96681 16.0566 6.92907 16.0559 6.92826C16.0523 6.92388 16.0687 6.94504 16.1086 7.02165C16.1841 7.16684 16.2871 7.39796 16.4378 7.73702L17.3516 7.33088ZM17.0048 7.5501C16.9243 7.18789 16.8697 6.94085 16.8441 6.77919C16.8305 6.69389 16.8311 6.66713 16.8309 6.67278C16.8308 6.67382 16.8297 6.72157 16.803 6.78556C16.7725 6.8586 16.6917 6.98599 16.5229 7.04164L16.2098 6.09192C16.0195 6.15466 15.9224 6.29932 15.8803 6.39994C15.8421 6.49151 15.8342 6.57714 15.832 6.62648C15.8272 6.72871 15.8412 6.84019 15.8564 6.93568C15.8881 7.13559 15.9516 7.42026 16.0286 7.76703L17.0048 7.5501ZM5.37045 11.0833C5.64191 11.0833 5.87687 11.0879 6.09448 11.0259L5.82047 10.0642C5.76941 10.0787 5.70258 10.0833 5.37045 10.0833V11.0833ZM6.26749 9.50037C6.1326 9.80388 6.10127 9.86308 6.06723 9.90383L6.83478 10.5448C6.97982 10.3711 7.07105 10.1546 7.1813 9.90651L6.26749 9.50037ZM6.09448 11.0259C6.38392 10.9435 6.64187 10.7758 6.83478 10.5448L6.06723 9.90383C6.00293 9.98083 5.91695 10.0367 5.82047 10.0642L6.09448 11.0259ZM12.5898 7.55254C12.6272 7.2162 12.6525 6.99122 12.6782 6.84801C12.6918 6.7719 12.6996 6.75587 12.6944 6.76828C12.6921 6.77367 12.673 6.82076 12.6234 6.87309C12.5658 6.93389 12.4528 7.01387 12.2917 7.01387V6.01387C12.1082 6.01387 11.9744 6.1041 11.8974 6.18539C11.8284 6.2582 11.7912 6.33603 11.7718 6.3824C11.7323 6.47676 11.7096 6.58366 11.6939 6.67146C11.6608 6.85606 11.6314 7.12281 11.5959 7.44211L12.5898 7.55254ZM12.9874 7.44211C12.9519 7.12281 12.9226 6.85606 12.8894 6.67146C12.8737 6.58366 12.851 6.47676 12.8115 6.3824C12.7921 6.33603 12.7549 6.2582 12.6859 6.18539C12.6089 6.1041 12.4752 6.01387 12.2917 6.01387V7.01387C12.1305 7.01387 12.0175 6.93389 11.9599 6.87309C11.9104 6.82076 11.8912 6.77367 11.889 6.76828C11.8838 6.75587 11.8915 6.7719 11.9052 6.84801C11.9308 6.99122 11.9561 7.2162 11.9935 7.55254L12.9874 7.44211ZM2.86811 7.28844C2.67951 7.72851 2.52697 8.08364 2.42699 8.374C2.32703 8.66433 2.2598 8.94292 2.27983 9.22501L3.27732 9.15417C3.27159 9.07344 3.28729 8.94706 3.37251 8.69956C3.45772 8.4521 3.59261 8.13654 3.78726 7.68236L2.86811 7.28844ZM5.37045 10.0833C4.87632 10.0833 4.53314 10.083 4.27212 10.0639C4.01106 10.0447 3.88872 10.0093 3.81677 9.97227L3.35873 10.8612C3.61011 10.9907 3.89267 11.0387 4.1989 11.0612C4.50517 11.0837 4.89167 11.0833 5.37045 11.0833V10.0833ZM2.27983 9.22501C2.32928 9.92132 2.7382 10.5415 3.35873 10.8612L3.81677 9.97227C3.5065 9.8124 3.30204 9.50232 3.27732 9.15417L2.27983 9.22501ZM20.7961 7.68236C20.9907 8.13654 21.1256 8.4521 21.2108 8.69956C21.296 8.94706 21.3117 9.07344 21.306 9.15417L22.3035 9.22501C22.3235 8.94292 22.2563 8.66433 22.1563 8.374C22.0564 8.08364 21.9038 7.72851 21.7152 7.28844L20.7961 7.68236ZM19.2129 11.0833C19.6917 11.0833 20.0782 11.0837 20.3844 11.0612C20.6907 11.0387 20.9732 10.9907 21.2246 10.8612L20.7666 9.97227C20.6946 10.0093 20.5723 10.0447 20.3112 10.0639C20.0502 10.083 19.707 10.0833 19.2129 10.0833V11.0833ZM21.306 9.15417C21.2813 9.50232 21.0768 9.8124 20.7666 9.97227L21.2246 10.8612C21.8451 10.5415 22.2541 9.92132 22.3035 9.22501L21.306 9.15417ZM16.6957 3.5C17.3461 3.5 17.7944 3.50067 18.1438 3.5384C18.4812 3.57483 18.68 3.64202 18.8403 3.74774L19.3908 2.9129C19.0501 2.68829 18.6786 2.59033 18.2512 2.54418C17.8357 2.49933 17.3246 2.5 16.6957 2.5V3.5ZM20.8319 5.22736C20.5842 4.64938 20.3835 4.17928 20.1786 3.81511C19.9678 3.44037 19.7314 3.1375 19.3908 2.9129L18.8403 3.74774C19.0006 3.85345 19.1407 4.00969 19.307 4.30542C19.4794 4.61173 19.6565 5.02347 19.9128 5.62128L20.8319 5.22736ZM7.88758 2.5C7.25876 2.5 6.74759 2.49933 6.33217 2.54418C5.90468 2.59033 5.53318 2.68829 5.19256 2.9129L5.74306 3.74774C5.90338 3.64202 6.10215 3.57483 6.43951 3.5384C6.78894 3.50067 7.23719 3.5 7.88758 3.5V2.5ZM4.67058 5.62128C4.92678 5.02347 5.10397 4.61173 5.2763 4.30542C5.44267 4.00969 5.58273 3.85345 5.74306 3.74774L5.19256 2.9129C4.85195 3.1375 4.61556 3.44037 4.40475 3.81511C4.19988 4.17928 3.99914 4.64938 3.75143 5.22736L4.67058 5.62128Z" fill="#212121"/>
</svg>
