<svg width="20" height="20" viewBox="0 0 20 20" fill="none" xmlns="http://www.w3.org/2000/svg">
<path d="M19.8249 4.54625C19.6766 4.36375 19.4539 4.25781 19.2187 4.25781H18.9372L14.9082 0.228837C14.6031 -0.0762791 14.1084 -0.0762791 13.8033 0.228837L12.1096 1.92254L10.4158 0.228837C10.1107 -0.0762791 9.61604 -0.0762791 9.31096 0.228837L5.28198 4.25781H5.0678L5.00983 3.72531L5.00776 3.70821C4.73042 1.59419 2.91339 9.76955e-06 0.781249 9.76955e-06C0.349765 9.76955e-06 0 0.349775 0 0.781258C0 1.21274 0.349765 1.56251 0.781249 1.56251C2.12914 1.56251 3.27824 2.56833 3.45749 3.90344L4.3862 12.4355C3.57421 12.8041 3.00781 13.622 3.00781 14.5703C3.00781 14.5769 3.00863 14.5833 3.00878 14.5898C3.00863 14.5964 3.00781 14.6028 3.00781 14.6094C3.00781 15.9017 4.05921 16.9531 5.35155 16.9531H5.67018C5.59065 17.1862 5.54686 17.4356 5.54686 17.6953C5.54686 18.9661 6.58077 20 7.85155 20C9.12233 20 10.1562 18.9661 10.1562 17.6953C10.1562 17.4356 10.1124 17.1862 10.0329 16.9531H13.4045C13.325 17.1862 13.2812 17.4356 13.2812 17.6953C13.2812 18.9661 14.3151 20 15.5859 20C16.8567 20 17.8906 18.9661 17.8906 17.6953C17.8906 16.4245 16.8567 15.3906 15.5859 15.3906H5.35155C4.92077 15.3906 4.5703 15.0401 4.5703 14.6094C4.5703 14.6028 4.56948 14.5964 4.56933 14.5898C4.56948 14.5833 4.5703 14.5769 4.5703 14.5703C4.5703 14.1395 4.92077 13.789 5.35155 13.789H15.3254C16.7122 13.789 17.985 12.931 18.5678 11.603C18.7412 11.208 18.5615 10.7471 18.1665 10.5737C17.7714 10.4002 17.3105 10.5799 17.1371 10.975C16.8085 11.7236 16.0805 12.2265 15.3254 12.2265H5.93518L5.23788 5.82031H18.2577L17.8755 7.653C17.7874 8.07538 18.0584 8.48921 18.4807 8.5773C18.5346 8.58855 18.5882 8.5939 18.6411 8.5939C19.0032 8.5939 19.3282 8.34058 19.4051 7.97202L19.9836 5.19859C20.0315 4.96836 19.9732 4.72875 19.8249 4.54625ZM15.5859 16.9531C15.9952 16.9531 16.3281 17.286 16.3281 17.6953C16.3281 18.1045 15.9952 18.4375 15.5859 18.4375C15.1767 18.4375 14.8437 18.1045 14.8437 17.6953C14.8437 17.286 15.1767 16.9531 15.5859 16.9531ZM7.85155 16.9531C8.2608 16.9531 8.59373 17.2861 8.59373 17.6953C8.59373 18.1045 8.2608 18.4375 7.85155 18.4375C7.44229 18.4375 7.10936 18.1045 7.10936 17.6953C7.10936 17.286 7.44229 16.9531 7.85155 16.9531ZM9.77432 4.25781H7.4917L9.86342 1.8861L11.0047 3.02743L9.77432 4.25781ZM11.984 4.25781L14.3558 1.8861L16.7274 4.25781H11.984Z" fill="#212121"/>
</svg>
