<svg width="19" height="19" viewBox="0 0 19 19" fill="none" xmlns="http://www.w3.org/2000/svg">
<path d="M11.9047 0C8.20847 0 5.20392 3.04778 5.20392 6.76564C5.20392 8.34357 5.74431 9.7702 6.63054 10.9374L0.275597 17.3572C-0.0918657 17.7463 -0.0918657 18.3515 0.275597 18.719C0.470136 18.9135 0.707908 19 0.945678 19C1.20506 19 1.44283 18.9135 1.63737 18.719L7.99232 12.2776C9.09471 13.0774 10.4349 13.5313 11.8831 13.5313C15.5793 13.5313 18.5839 10.4835 18.5839 6.76564C18.6055 3.02616 15.601 0 11.9047 0ZM11.9047 11.8237C9.15955 11.8237 6.93316 9.55403 6.93316 6.76564C6.93316 3.97724 9.15955 1.70763 11.9047 1.70763C14.6499 1.70763 16.8763 3.97724 16.8763 6.76564C16.8763 9.55403 14.6499 11.8237 11.9047 11.8237Z" fill="#212121"/>
</svg>
