<svg width="17" height="17" viewBox="0 0 17 17" fill="none" xmlns="http://www.w3.org/2000/svg">
<path d="M14.8552 4.38594H13.0311C13.3131 4.01109 13.4806 3.54536 13.4806 3.04121C13.4806 1.80541 12.4752 0.799999 11.2394 0.799999C10.4949 0.799999 9.94603 1.0667 9.51186 1.63932C9.14863 2.1184 8.88304 2.7873 8.5499 3.63244C8.21677 2.78727 7.95117 2.1184 7.58794 1.63932C7.15378 1.0667 6.60486 0.799999 5.86045 0.799999C4.62465 0.799999 3.61924 1.80541 3.61924 3.04121C3.61924 3.54536 3.78667 4.01109 4.06871 4.38594H2.24463C1.50315 4.38594 0.899902 4.98918 0.899902 5.73066V6.62715C0.899902 7.21151 1.27466 7.70974 1.79639 7.89478V14.7553C1.79639 15.4968 2.39963 16.1 3.14111 16.1H13.9587C14.7002 16.1 15.3034 15.4968 15.3034 14.7553V7.89478C15.8251 7.70974 16.1999 7.21151 16.1999 6.62715V5.73066C16.1999 4.98918 15.5967 4.38594 14.8552 4.38594ZM9.37269 3.98969C10.0594 2.24758 10.3204 1.69648 11.2394 1.69648C11.9808 1.69648 12.5841 2.29973 12.5841 3.04121C12.5841 3.78269 11.9808 4.38594 11.2394 4.38594H9.2159C9.27082 4.24803 9.32321 4.11526 9.37269 3.98969ZM5.86045 1.69648C6.77938 1.69648 7.04043 2.24758 7.72711 3.98969C7.77659 4.11526 7.82898 4.24803 7.8839 4.38594H5.86045C5.11897 4.38594 4.51572 3.78269 4.51572 3.04121C4.51572 2.29973 5.11897 1.69648 5.86045 1.69648ZM6.75693 15.2035H3.14111C2.89395 15.2035 2.69287 15.0024 2.69287 14.7553V7.97187H6.75693V15.2035ZM6.75693 7.07539H2.24463C1.99747 7.07539 1.79639 6.87431 1.79639 6.62715V5.73066C1.79639 5.4835 1.99747 5.28242 2.24463 5.28242H6.75693V7.07539ZM9.44639 15.2035H7.65342V5.28242C7.74734 5.28242 8.93121 5.28242 9.44639 5.28242V15.2035ZM14.4069 14.7553C14.4069 15.0024 14.2059 15.2035 13.9587 15.2035H10.3429V7.97187H14.4069V14.7553ZM15.3034 6.62715C15.3034 6.87431 15.1023 7.07539 14.8552 7.07539H10.3429V5.28242H14.8552C15.1023 5.28242 15.3034 5.4835 15.3034 5.73066V6.62715Z" fill="white"/>
</svg>
