<svg width="15" height="15" viewBox="0 0 15 15" fill="none" xmlns="http://www.w3.org/2000/svg">
<g clip-path="url(#clip0_4602_14718)">
<path d="M3.08115 0.67191C2.52883 0.364372 1.88034 0.371483 1.33154 0.676354L7.76353 6.65379L9.92429 4.47703L3.08115 0.67191Z" fill="white"/>
<path d="M0.688451 1.28784C0.531401 1.54649 0.441406 1.84248 0.441406 2.15624V12.9521C0.441406 13.2561 0.52346 13.5458 0.671687 13.7991L7.13985 7.28306L0.688451 1.28784Z" fill="white"/>
<path d="M12.7892 6.06979L10.7282 4.92407L8.41211 7.25639L11.2505 9.89357L12.7901 9.03762C13.3442 8.7283 13.6759 8.17367 13.6759 7.55326C13.675 6.93285 13.3442 6.37821 12.7892 6.06979Z" fill="white"/>
<path d="M7.78854 7.88574L1.30273 14.4196C1.58419 14.5814 1.893 14.6667 2.20357 14.6667C2.50355 14.6667 2.8053 14.5903 3.08146 14.4365L10.4372 10.3469L7.78854 7.88574Z" fill="white"/>
</g>
<defs>
<clipPath id="clip0_4602_14718">
<rect width="14.1176" height="14.2222" fill="white" transform="translate(0 0.444458)"/>
</clipPath>
</defs>
</svg>
