<svg width="16" height="16" viewBox="0 0 16 16" fill="none" xmlns="http://www.w3.org/2000/svg">
<path d="M14.3127 0.777344H3.96659C3.0687 0.777344 2.33818 1.50103 2.33818 2.38767L2.27151 11.498H0.252404C0.109312 11.498 0 11.6245 0 11.7676V13.0214C0 14.1951 0.93927 15.155 2.07287 15.2076V15.2227H10.7854V15.2057C10.8502 15.2084 10.8894 15.2227 10.9339 15.2227H10.9401C12.1491 15.2156 13.1237 14.2302 13.1174 13.0211V5.05265H15.7476C15.8907 5.05265 16 4.92309 16 4.78013V2.47965C16.0016 1.54468 15.2477 0.784049 14.3127 0.777344V0.777344ZM2.18623 14.7045H2.18446C1.26278 14.7045 0.518218 13.9427 0.518218 13.0211V12.0162H8.74493V13.0168C8.7429 13.6001 8.97329 14.1601 9.38511 14.573C9.42889 14.617 9.47468 14.6397 9.5215 14.7045H2.18623ZM12.5992 13.0209C12.5992 13.9427 11.8618 14.7045 10.9398 14.7045H10.9345C10.0078 14.6978 9.261 13.9436 9.26315 13.017V11.7676C9.26391 11.6225 9.14915 11.5031 9.00404 11.498H2.78972L2.8564 2.38944C2.8564 1.78683 3.35437 1.29556 3.96659 1.29556H13.0894C12.7941 1.61945 12.5992 2.02924 12.5992 2.4866V13.0209ZM15.4818 2.4842V4.53443H13.1174V2.4861C13.1174 1.83757 13.6569 1.29556 14.3051 1.29556H14.3124C14.9623 1.30201 15.4848 1.83225 15.4818 2.4823V2.4842Z" fill="#5C6784"/>
<path d="M6.08444 7.15504L7.42035 8.06837C7.50752 8.12847 7.62278 8.12847 7.70995 8.06837L9.04181 7.15529C9.50448 6.83963 9.84621 6.17971 9.84621 5.62012V3.77219C9.84899 3.67452 9.7951 3.58393 9.70805 3.53953L7.67402 2.53902C7.60266 2.50359 7.51891 2.50359 7.44755 2.53902L5.41731 3.53674C5.33027 3.58115 5.2765 3.67174 5.27941 3.76941V5.62012C5.27941 6.17971 5.62189 6.83963 6.08444 7.15504ZM5.79763 3.9311L7.56281 3.06015L9.32799 3.9335V5.62012C9.32799 6.01043 9.07217 6.50689 8.74942 6.7269L7.55977 7.54054L6.3748 6.72703C6.05206 6.50676 5.79763 6.01043 5.79763 5.62012V3.9311Z" fill="#5C6784"/>
<path d="M7.12444 6.01136C7.17277 6.0607 7.23882 6.08866 7.3079 6.08904H7.30853C7.37735 6.08879 7.44327 6.06121 7.49173 6.01237L8.52248 4.98125C8.62382 4.88003 8.62382 4.71581 8.5226 4.6146C8.42151 4.51325 8.25729 4.51325 8.15608 4.61447L7.30941 5.461L6.97098 5.11928C6.87014 5.01756 6.70605 5.0168 6.60432 5.11763C6.5026 5.21847 6.50197 5.38256 6.60268 5.48428L7.12444 6.01136Z" fill="#5C6784"/>
<path d="M10.7854 8.80981H4.56673C4.42363 8.80981 4.30762 8.92583 4.30762 9.06892C4.30762 9.21202 4.42363 9.32803 4.56673 9.32803H10.7854C10.9284 9.32803 11.0445 9.21202 11.0445 9.06892C11.0445 8.92583 10.9284 8.80981 10.7854 8.80981Z" fill="#5C6784"/>
<path d="M10.7854 10.0081H4.56673C4.42363 10.0081 4.30762 10.1241 4.30762 10.2672C4.30762 10.4103 4.42363 10.5263 4.56673 10.5263H10.7854C10.9284 10.5263 11.0445 10.4103 11.0445 10.2672C11.0445 10.1241 10.9284 10.0081 10.7854 10.0081Z" fill="#5C6784"/>
</svg>
