<svg width="16" height="16" viewBox="0 0 16 16" fill="none" xmlns="http://www.w3.org/2000/svg">
<g clip-path="url(#clip0_1975_7093)">
<path d="M15.9249 5.4991L13.6079 3.86247V1.47187C13.5847 1.23505 13.4022 1.04499 13.1665 1.01215H3.01582C2.78017 1.04502 2.5977 1.23505 2.57447 1.47187V3.84406L0.1655 5.49906C0.0700788 5.56833 0.0096442 5.67579 0 5.79328V14.5281C0.031326 14.7678 0.219986 14.9565 0.459718 14.9878H15.7226C15.9249 14.9878 15.9985 14.7487 15.9985 14.5281V5.79332C15.9985 5.68297 16.0169 5.57263 15.9249 5.4991ZM13.6079 4.74513L15.1894 5.83007L13.6079 7.02535V4.74513ZM3.31004 1.74771H12.8723V7.59545L8.09117 11.1997L3.31 7.59545V1.74771H3.31004ZM2.57447 4.72675V7.04379L0.993 5.8301L2.57447 4.72675ZM0.735564 6.58404L5.88451 10.4825L0.735564 13.9581V6.58404ZM1.61825 14.2523L6.50973 10.9606L7.81536 11.9536C7.88927 12.0108 7.97941 12.043 8.07279 12.0456C8.14635 12.0456 8.18314 12.0088 8.25667 11.9536L9.61745 10.9055L14.5641 14.2523H1.61825ZM15.2629 13.8293L10.2243 10.4457L15.2629 6.58404V13.8293Z" fill="#5C6784"/>
<path d="M5.14903 4.13834H6.80404C7.00716 4.13834 7.17182 3.97368 7.17182 3.77055C7.17182 3.56743 7.00716 3.40277 6.80404 3.40277H5.14903C4.94591 3.40277 4.78125 3.56743 4.78125 3.77055C4.78125 3.97368 4.94591 4.13834 5.14903 4.13834Z" fill="#5C6784"/>
<path d="M5.14903 5.79337H11.0336C11.2367 5.79337 11.4013 5.62871 11.4013 5.42558C11.4013 5.22246 11.2367 5.0578 11.0336 5.0578H5.14903C4.94591 5.0578 4.78125 5.22246 4.78125 5.42558C4.78125 5.62871 4.94591 5.79337 5.14903 5.79337Z" fill="#5C6784"/>
<path d="M11.4013 7.08055C11.4013 6.87742 11.2366 6.71277 11.0335 6.71277H5.14903C4.94591 6.71277 4.78125 6.87742 4.78125 7.08055C4.78125 7.28368 4.94591 7.44833 5.14903 7.44833H11.0336C11.2366 7.44833 11.4013 7.28368 11.4013 7.08055Z" fill="#5C6784"/>
</g>
<defs>
<clipPath id="clip0_1975_7093">
<rect width="16" height="16" fill="white"/>
</clipPath>
</defs>
</svg>
