<svg width="16" height="16" viewBox="0 0 16 16" fill="none" xmlns="http://www.w3.org/2000/svg">
<path d="M8.66675 4C8.66675 4.36816 8.36829 4.66663 8.00012 4.66663C7.63196 4.66663 7.3335 4.36816 7.3335 4C7.3335 3.63184 7.63196 3.33337 8.00012 3.33337C8.36829 3.33337 8.66675 3.63184 8.66675 4Z" fill="#5C6784"/>
<path d="M8.00012 12.6666C7.72412 12.6666 7.50012 12.4426 7.50012 12.1666V7H6.8335C6.5575 7 6.3335 6.776 6.3335 6.5C6.3335 6.224 6.5575 6 6.8335 6H8.00012C8.27612 6 8.50012 6.224 8.50012 6.5V12.1666C8.50012 12.4426 8.27612 12.6666 8.00012 12.6666Z" fill="#5C6784"/>
<path d="M8 16C3.58862 16 0 12.4114 0 8C0 3.58862 3.58862 0 8 0C12.4114 0 16 3.58862 16 8C16 12.4114 12.4114 16 8 16ZM8 1C4.14001 1 1 4.14001 1 8C1 11.86 4.14001 15 8 15C11.86 15 15 11.86 15 8C15 4.14001 11.86 1 8 1Z" fill="#5C6784"/>
<path d="M9.5 12.6666H6.5C6.224 12.6666 6 12.4426 6 12.1666C6 11.8906 6.224 11.6666 6.5 11.6666H9.5C9.776 11.6666 10 11.8906 10 12.1666C10 12.4426 9.776 12.6666 9.5 12.6666Z" fill="#5C6784"/>
</svg>
