<svg width="16" height="16" viewBox="0 0 16 16" fill="none" xmlns="http://www.w3.org/2000/svg">
<path d="M13.7885 1.1448L12.7218 0.0781333C12.6718 0.0281333 12.604 0 12.5333 0H2.39997C2.2527 0 2.1333 0.1194 2.1333 0.266667V14.6667C2.1333 14.7374 2.16143 14.8052 2.21143 14.8552L3.2781 15.9219C3.3281 15.9719 3.3959 16 3.46663 16H13.6C13.7472 16 13.8666 15.8806 13.8666 15.7333V1.33333C13.8666 1.2626 13.8385 1.1948 13.7885 1.1448ZM10.4 0.9104L12.9562 3.46667H10.4V0.9104ZM13.3333 15.4667H3.57703L2.66663 14.5563V0.533333H9.86663V3.73333C9.86663 3.8806 9.98603 4 10.1333 4H13.3333V15.4667ZM13.3333 3.0896L10.777 0.533333H12.4229L13.3333 1.44373V3.0896Z" fill="#5C6784"/>
<path d="M11.4666 4.53333H4.53327C4.386 4.53333 4.2666 4.65273 4.2666 4.79999C4.2666 4.94726 4.386 5.06666 4.53327 5.06666H11.4666C11.6139 5.06666 11.7333 4.94726 11.7333 4.79999C11.7333 4.65273 11.6139 4.53333 11.4666 4.53333Z" fill="#5C6784"/>
<path d="M11.4666 6.13336H4.53327C4.386 6.13336 4.2666 6.25276 4.2666 6.40003C4.2666 6.5473 4.386 6.6667 4.53327 6.6667H11.4666C11.6139 6.6667 11.7333 6.5473 11.7333 6.40003C11.7333 6.25276 11.6139 6.13336 11.4666 6.13336Z" fill="#5C6784"/>
<path d="M11.4666 7.73334H4.53327C4.386 7.73334 4.2666 7.85274 4.2666 8C4.2666 8.14727 4.386 8.26667 4.53327 8.26667H11.4666C11.6139 8.26667 11.7333 8.14727 11.7333 8C11.7333 7.85274 11.6139 7.73334 11.4666 7.73334Z" fill="#5C6784"/>
<path d="M11.4666 9.33331H4.53327C4.386 9.33331 4.2666 9.45271 4.2666 9.59998C4.2666 9.74725 4.386 9.86665 4.53327 9.86665H11.4666C11.6139 9.86665 11.7333 9.74725 11.7333 9.59998C11.7333 9.45271 11.6139 9.33331 11.4666 9.33331Z" fill="#5C6784"/>
<path d="M11.4666 10.9333H4.53327C4.386 10.9333 4.2666 11.0527 4.2666 11.2C4.2666 11.3473 4.386 11.4667 4.53327 11.4667H11.4666C11.6139 11.4667 11.7333 11.3473 11.7333 11.2C11.7333 11.0527 11.6139 10.9333 11.4666 10.9333Z" fill="#5C6784"/>
<path d="M11.4666 12.5333H4.53327C4.386 12.5333 4.2666 12.6527 4.2666 12.8C4.2666 12.9473 4.386 13.0667 4.53327 13.0667H11.4666C11.6139 13.0667 11.7333 12.9473 11.7333 12.8C11.7333 12.6527 11.6139 12.5333 11.4666 12.5333Z" fill="#5C6784"/>
<path d="M8.00002 1.86664C7.41092 1.86664 6.93335 2.3442 6.93335 2.9333C6.93335 3.5224 7.41092 3.99997 8.00002 3.99997C8.58912 3.99997 9.06668 3.5224 9.06668 2.9333C9.06668 2.3442 8.58912 1.86664 8.00002 1.86664ZM8.00002 3.46664C7.70545 3.46664 7.46668 3.22787 7.46668 2.9333C7.46668 2.63874 7.70545 2.39997 8.00002 2.39997C8.29458 2.39997 8.53335 2.63874 8.53335 2.9333C8.53335 3.22787 8.29458 3.46664 8.00002 3.46664Z" fill="#5C6784"/>
</svg>
