<svg width="16" height="16" viewBox="0 0 16 16" fill="none" xmlns="http://www.w3.org/2000/svg">
<path d="M14.8326 2.39186C14.0435 1.45069 12.9487 0.932381 11.75 0.932381C10.0641 0.932381 8.99678 1.99068 8.39828 2.8785C8.243 3.10888 8.11091 3.33989 8 3.55726C7.88909 3.33989 7.75703 3.10888 7.60172 2.8785C7.00322 1.99068 5.93588 0.932381 4.25 0.932381C3.05131 0.932381 1.95653 1.45072 1.16734 2.39189C0.414594 3.2897 0 4.49213 0 5.77765C0 7.17699 0.519781 8.47851 1.63578 9.87354C2.63319 11.1204 4.06809 12.4056 5.72969 13.8938C6.34884 14.4484 6.98913 15.0218 7.67078 15.6487L7.69125 15.6676C7.77963 15.7489 7.88981 15.7895 8 15.7895C8.11019 15.7895 8.22038 15.7489 8.30875 15.6676L8.32922 15.6487C9.01088 15.0218 9.65116 14.4484 10.2704 13.8937C11.9319 12.4056 13.3668 11.1204 14.3642 9.87354C15.4802 8.47848 16 7.17699 16 5.77765C16 4.49213 15.5854 3.2897 14.8326 2.39186ZM9.66228 13.1438C9.12853 13.6218 8.57922 14.1138 8 14.6431C7.42081 14.1139 6.87147 13.6219 6.33763 13.1437C3.08578 10.2312 0.9375 8.30702 0.9375 5.77765C0.9375 4.73216 1.26891 3.76111 1.87069 3.04339C2.47938 2.31753 3.32434 1.91776 4.25 1.91776C5.53528 1.91776 6.36613 2.75001 6.83675 3.44818C7.25891 4.07436 7.47919 4.70559 7.55431 4.9479C7.61716 5.15072 7.79706 5.28798 8 5.28798C8.20294 5.28798 8.38284 5.15072 8.44569 4.9479C8.52081 4.70559 8.74109 4.07436 9.16325 3.44815C9.63387 2.75001 10.4647 1.91776 11.75 1.91776C12.6757 1.91776 13.5206 2.31753 14.1293 3.04339C14.7311 3.76111 15.0625 4.73216 15.0625 5.77765C15.0625 8.30702 12.9142 10.2312 9.66228 13.1438Z" fill="#5C6784"/>
</svg>
