<svg width="15" height="15" viewBox="0 0 15 15" fill="none" xmlns="http://www.w3.org/2000/svg">
<g clip-path="url(#clip0_1832_27)">
<path d="M12.0144 7.80254C11.6356 7.06317 10.7138 6.78254 9.81125 7.49192C9.8025 7.49879 8.90875 8.18442 7.50188 8.18442C6.095 8.18442 5.20125 7.49817 5.1925 7.49192C4.29375 6.78192 3.36438 7.06004 2.98813 7.80442C2.98688 7.80629 2.98625 7.80817 2.985 7.81067C2.42563 8.95504 3.34938 9.55129 4.0925 10.0307C4.55188 10.3263 5.13938 10.5494 5.845 10.6969L3.84188 12.7044C2.6325 13.9113 4.5275 15.8157 5.74938 14.6213L7.50813 12.8538C8.185 13.5319 8.81563 14.165 9.27063 14.6282C10.4769 15.8125 12.3844 13.9413 11.1819 12.7069C9.7475 11.2738 9.43875 10.9644 9.1675 10.6975C10.665 10.3769 12.7481 9.32629 12.0144 7.80254ZM8.24875 9.89942C7.925 9.74379 7.495 10.335 7.84875 10.7025L7.8525 10.7063C7.85313 10.7069 7.85438 10.7082 7.855 10.7088C7.85625 10.71 7.85688 10.7113 7.85813 10.7119C8.03813 10.8913 10.46 13.3107 10.5138 13.365C10.85 13.7107 10.2575 14.2819 9.93188 13.9644C9.35063 13.3732 8.42875 12.45 7.83813 11.8582C7.65563 11.675 7.3575 11.6738 7.17438 11.8582L5.08813 13.9544C4.7575 14.2775 4.16813 13.7007 4.50313 13.3663L7.15563 10.7088C7.15688 10.7075 7.15813 10.7063 7.15875 10.705C7.48813 10.3813 7.15563 9.78129 6.76813 9.89567C5.845 9.78754 5.09688 9.56192 4.59875 9.24192C3.63625 8.62004 3.68438 8.51067 3.82375 8.22504C4.22875 7.44942 4.94625 9.12192 7.50063 9.12192C9.25 9.12192 10.3475 8.26254 10.3906 8.22817C10.6756 8.00442 11.01 7.90004 11.1744 8.21942C11.3138 8.50879 11.3656 8.61692 10.4006 9.24379C9.74188 9.66317 8.81063 9.83254 8.24875 9.89942Z" fill="white"/>
<path d="M7.49938 6.24819C8.72063 6.24819 9.71375 5.25319 9.71375 4.03069C9.71375 2.80319 8.72063 1.80444 7.49938 1.80444C6.27875 1.80444 5.28563 2.80319 5.28563 4.03069C5.285 5.25319 6.27813 6.24819 7.49938 6.24819ZM7.49938 2.74194C8.20313 2.74194 8.77625 3.32007 8.77625 4.03069C8.77625 4.73632 8.20313 5.31069 7.49938 5.31069C6.79563 5.31069 6.2225 4.73632 6.2225 4.03007C6.2225 3.32007 6.795 2.74194 7.49938 2.74194Z" fill="white"/>
<path d="M7.49937 8.05188C9.7175 8.05188 11.5225 6.2475 11.5225 4.03C11.5219 1.80812 9.7175 0 7.49937 0C5.28125 0 3.47625 1.80812 3.47625 4.03C3.47625 6.2475 5.28062 8.05188 7.49937 8.05188ZM7.49937 0.9375C9.20062 0.9375 10.585 2.325 10.585 4.03C10.585 5.73063 9.20125 7.11438 7.49937 7.11438C5.7975 7.11438 4.41375 5.73063 4.41375 4.03C4.41375 2.325 5.7975 0.9375 7.49937 0.9375Z" fill="white"/>
</g>
<defs>
<clipPath id="clip0_1832_27">
<rect width="15" height="15" fill="white"/>
</clipPath>
</defs>
</svg>
