<svg width="15" height="15" viewBox="0 0 15 15" fill="none" xmlns="http://www.w3.org/2000/svg">
<g clip-path="url(#clip0_1905_5416)">
<path d="M7.50029 2.25635C4.34632 2.25635 1.78027 4.82242 1.78027 7.97637C1.78027 11.1305 4.34635 13.6966 7.50029 13.6966C10.6544 13.6966 13.2203 11.1305 13.2203 7.97637C13.2203 4.82242 10.6543 2.25635 7.50029 2.25635ZM7.50029 12.6599C4.91799 12.6599 2.81712 10.5589 2.81712 7.97657C2.81712 5.39427 4.91796 3.29339 7.50029 3.29339C10.0826 3.29339 12.1835 5.39427 12.1835 7.97657C12.1835 10.559 10.0826 12.6599 7.50029 12.6599Z" fill="#F95738"/>
<path d="M9.09023 7.80356H7.70777V5.79895C7.70777 5.51261 7.47568 5.28052 7.18933 5.28052C6.90299 5.28052 6.6709 5.51261 6.6709 5.79895V8.32199C6.6709 8.60834 6.90299 8.84043 7.18933 8.84043H9.09026C9.3766 8.84043 9.60869 8.60834 9.60869 8.32199C9.60866 8.03565 9.37657 7.80356 9.09023 7.80356Z" fill="#F95738"/>
<path d="M4.56318 11.6868C4.35028 11.4952 4.02245 11.5126 3.83099 11.7253L2.27569 13.4534C2.08403 13.6662 2.10149 13.994 2.31421 14.1855C2.41323 14.2748 2.53731 14.3187 2.66088 14.3187C2.80276 14.3187 2.94412 14.2608 3.04642 14.147L4.60173 12.4189C4.79336 12.2061 4.7759 11.8783 4.56318 11.6868Z" fill="#F95738"/>
<path d="M12.7246 13.4535L11.1693 11.7254C10.9782 11.5125 10.6502 11.4952 10.4372 11.6869C10.2243 11.8784 10.2072 12.2062 10.3987 12.4189L11.954 14.147C12.0562 14.2607 12.1975 14.3186 12.3394 14.3186C12.4628 14.3186 12.5869 14.2747 12.6861 14.1855C12.899 13.9941 12.9161 13.6662 12.7246 13.4535Z" fill="#F95738"/>
<path d="M4.4755 1.43686C3.44536 0.428168 1.78485 0.42972 0.774085 1.44066C0.271177 1.94337 -0.00359723 2.60852 3.55659e-05 3.31358C0.00384414 4.01017 0.279995 4.66237 0.777865 5.15004C0.878792 5.24872 1.0096 5.29796 1.14059 5.29796C1.2733 5.29796 1.40602 5.24716 1.50712 5.14624L4.47945 2.1739C4.57727 2.07594 4.63188 1.94302 4.63118 1.80462C4.63051 1.66616 4.57449 1.5338 4.4755 1.43686ZM1.19745 3.98942C1.0936 3.78016 1.03811 3.5486 1.03691 3.30804C1.03465 2.88224 1.20158 2.47923 1.50712 2.1737C1.81195 1.86904 2.21496 1.71679 2.62019 1.71679C2.85711 1.71679 3.09492 1.76879 3.31403 1.87282L1.19745 3.98942Z" fill="#F95738"/>
<path d="M14.2264 1.4406C13.2155 0.42983 11.555 0.428102 10.5249 1.43679C10.426 1.53373 10.3699 1.66612 10.3691 1.80452C10.3684 1.94295 10.4232 2.07601 10.5211 2.17381L13.4934 5.14614C13.5945 5.24742 13.7272 5.29804 13.8599 5.29804C13.9909 5.29804 14.1219 5.2488 14.2226 5.14977C14.7207 4.66227 14.9968 4.0101 15.0005 3.31348C15.0041 2.60863 14.7291 1.94348 14.2264 1.4406ZM13.8031 3.98953L11.6865 1.87296C12.2806 1.59092 13.0104 1.691 13.4934 2.17398C13.7989 2.47952 13.9659 2.88232 13.9636 3.30832C13.9624 3.5487 13.9069 3.78044 13.8031 3.98953Z" fill="#F95738"/>
</g>
<rect x="0.5" y="0.5" width="14" height="14" stroke="#DDE2F2"/>
<defs>
<clipPath id="clip0_1905_5416">
<rect width="15" height="15" fill="white"/>
</clipPath>
</defs>
</svg>
