<svg width="15" height="15" viewBox="0 0 15 15" fill="none" xmlns="http://www.w3.org/2000/svg">
<g clip-path="url(#clip0_1905_5395)">
<path d="M11.9599 4.36366C11.805 1.981 9.86035 0.114502 7.53275 0.114502C5.22457 0.114502 3.28014 1.97922 3.10579 4.36286C3.03636 5.40469 3.36528 6.48214 4.0357 7.40142L7.14026 11.5517C7.23275 11.6754 7.37818 11.7483 7.53275 11.7483C7.68732 11.7483 7.83257 11.6754 7.92524 11.5517L11.0293 7.40206C11.7014 6.50616 12.0318 5.42675 11.9599 4.36366ZM10.2447 6.81416L7.53275 10.4396L4.82426 6.81891C4.29273 6.09 4.02964 5.2408 4.08372 4.43116C4.20366 2.79112 5.52671 1.09472 7.53275 1.09472C9.55578 1.09472 10.8751 2.78898 10.9816 4.42855C11.0378 5.25844 10.7762 6.10567 10.2447 6.81416Z" fill="#F95738"/>
<path d="M7.50026 2.40186C6.5001 2.40186 5.68652 3.21543 5.68652 4.21559C5.68652 5.21576 6.5001 6.02933 7.50026 6.02933C8.50025 6.02933 9.31399 5.21576 9.31399 4.21559C9.31397 3.2154 8.50042 2.40186 7.50026 2.40186ZM7.50026 5.04891C7.0408 5.04891 6.66694 4.67505 6.66694 4.21559C6.66694 3.74828 7.03295 3.38227 7.50026 3.38227C7.96757 3.38227 8.33358 3.74828 8.33358 4.21559C8.33358 4.67505 7.95972 5.04891 7.50026 5.04891Z" fill="#F95738"/>
<path d="M14.9777 14.2493L13.2129 8.59559C13.1492 8.39101 12.9597 8.25146 12.7451 8.25146H9.46085V9.23185H12.3847L13.8434 13.905H1.17345L2.75366 9.23185H5.70268V8.25146H2.40204C2.19175 8.25146 2.00498 8.38544 1.93766 8.58448L0.0258952 14.2382C-0.024759 14.3879 -0.000237585 14.5527 0.0919009 14.681C0.184039 14.8093 0.332252 14.8854 0.490279 14.8854H14.5099C14.6657 14.8854 14.8125 14.8114 14.9048 14.6858C14.9971 14.5601 15.0242 14.398 14.9777 14.2493Z" fill="#F95738"/>
<path d="M5.61789 11.0358C5.5254 10.9379 5.3965 10.8823 5.26167 10.8823H1.60156V11.8627H4.74306L4.60891 14.2369L5.58766 14.2921L5.75105 11.4C5.75872 11.2655 5.71053 11.1338 5.61789 11.0358Z" fill="#F95738"/>
<path d="M13.2679 10.2451H10.4248C10.154 10.2451 9.93457 10.4645 9.93457 10.7353C9.93457 11.0061 10.154 11.2255 10.4248 11.2255H13.2679C13.5387 11.2255 13.7581 11.0061 13.7581 10.7353C13.7581 10.4645 13.5387 10.2451 13.2679 10.2451Z" fill="#F95738"/>
<path d="M7.58199 12.0098C7.31123 12.0098 7.0918 12.2292 7.0918 12.5V14.3954H8.07218V12.9902H13.9709V12.0098H7.58199Z" fill="#F95738"/>
</g>
<rect x="0.5" y="0.5" width="14" height="14" stroke="#DDE2F2"/>
<defs>
<clipPath id="clip0_1905_5395">
<rect width="15" height="15" fill="white"/>
</clipPath>
</defs>
</svg>
