<svg width="15" height="15" viewBox="0 0 15 15" fill="none" xmlns="http://www.w3.org/2000/svg">
<g clip-path="url(#clip0_1975_6842)">
<path d="M11.8548 9.29195C11.5477 8.9722 11.1773 8.80124 10.7847 8.80124C10.3953 8.80124 10.0218 8.96903 9.70202 9.28878L8.70161 10.286C8.6193 10.2417 8.53699 10.2005 8.45784 10.1594C8.34387 10.1024 8.23623 10.0486 8.14442 9.9916C7.20733 9.39642 6.35572 8.62079 5.53893 7.61721C5.1432 7.11701 4.87726 6.69595 4.68415 6.26856C4.94375 6.03112 5.18435 5.78418 5.41863 5.54674C5.50727 5.4581 5.59591 5.36629 5.68456 5.27765C6.34939 4.61282 6.34939 3.75171 5.68456 3.08688L4.82028 2.2226C4.72214 2.12446 4.62083 2.02315 4.52586 1.92184C4.3359 1.72556 4.13646 1.52295 3.93068 1.333C3.62359 1.02907 3.25635 0.867615 2.87011 0.867615C2.48388 0.867615 2.11031 1.02907 1.79372 1.333C1.79056 1.33616 1.79056 1.33616 1.78739 1.33933L0.711003 2.42521C0.305774 2.83044 0.074667 3.32432 0.0240133 3.89734C-0.0519671 4.82176 0.220296 5.68288 0.429242 6.2464C0.942111 7.62988 1.70825 8.91205 2.85112 10.286C4.23776 11.9418 5.90617 13.2493 7.81201 14.1705C8.54016 14.5156 9.51207 14.924 10.598 14.9936C10.6644 14.9968 10.7341 15 10.7974 15C11.5287 15 12.1429 14.7372 12.6241 14.2148C12.6273 14.2085 12.6336 14.2054 12.6368 14.199C12.8014 13.9996 12.9913 13.8191 13.1908 13.626C13.3269 13.4962 13.4662 13.3601 13.6024 13.2176C13.9158 12.8915 14.0804 12.5116 14.0804 12.1222C14.0804 11.7297 13.9126 11.3529 13.5929 11.0363L11.8548 9.29195ZM12.9882 12.6256C12.985 12.6256 12.985 12.6288 12.9882 12.6256C12.8647 12.7586 12.7381 12.8789 12.6019 13.0118C12.3962 13.2081 12.1872 13.4139 11.9909 13.645C11.6712 13.9869 11.2944 14.1484 10.8006 14.1484C10.7531 14.1484 10.7024 14.1484 10.6549 14.1452C9.71469 14.085 8.84091 13.7178 8.18558 13.4044C6.39371 12.5369 4.82028 11.3054 3.51278 9.74467C2.43323 8.4435 1.71141 7.24048 1.23337 5.94881C0.938945 5.16051 0.831306 4.54634 0.878793 3.96698C0.910452 3.59658 1.05292 3.28949 1.31568 3.02673L2.39524 1.94717C2.55036 1.80154 2.71499 1.72239 2.87645 1.72239C3.0759 1.72239 3.23735 1.8427 3.33866 1.944C3.34183 1.94717 3.34499 1.95034 3.34816 1.9535C3.54128 2.13396 3.72489 2.32074 3.91801 2.52019C4.01615 2.6215 4.11746 2.7228 4.21877 2.82728L5.08305 3.69156C5.41863 4.02714 5.41863 4.33739 5.08305 4.67297C4.99124 4.76478 4.90259 4.85659 4.81078 4.94523C4.54485 5.2175 4.29158 5.47076 4.01615 5.7177C4.00982 5.72403 4.00349 5.7272 4.00032 5.73353C3.72806 6.00579 3.77871 6.27173 3.8357 6.45218C3.83887 6.46168 3.84203 6.47117 3.8452 6.48067C4.06997 7.0252 4.38656 7.53807 4.86777 8.14908L4.87093 8.15224C5.74471 9.22863 6.66597 10.0676 7.68221 10.7103C7.81201 10.7926 7.94498 10.859 8.07161 10.9224C8.18558 10.9793 8.29322 11.0332 8.38503 11.0902C8.39769 11.0965 8.41036 11.106 8.42302 11.1123C8.53066 11.1661 8.63197 11.1915 8.73644 11.1915C8.9992 11.1915 9.16383 11.0268 9.21765 10.973L10.3004 9.8903C10.408 9.78266 10.579 9.65286 10.7784 9.65286C10.9747 9.65286 11.1362 9.77632 11.2343 9.88396C11.2375 9.88713 11.2375 9.88713 11.2406 9.8903L12.985 11.6347C13.3111 11.9576 13.3111 12.29 12.9882 12.6256Z" fill="#F95738"/>
<path d="M8.10644 3.56811C8.93589 3.70741 9.68936 4.09998 10.2909 4.70149C10.8924 5.303 11.2818 6.05647 11.4243 6.88593C11.4591 7.09487 11.6395 7.2405 11.8453 7.2405C11.8706 7.2405 11.8928 7.23734 11.9181 7.23417C12.1524 7.19618 12.3075 6.97457 12.2695 6.7403C12.0986 5.73672 11.6237 4.82179 10.8987 4.09681C10.1737 3.37183 9.25881 2.89695 8.25523 2.726C8.02096 2.68801 7.80251 2.84313 7.76136 3.07424C7.7202 3.30535 7.87216 3.53012 8.10644 3.56811Z" fill="#F95738"/>
<path d="M14.9827 6.61682C14.7009 4.96424 13.9221 3.46046 12.7254 2.26377C11.5288 1.06708 10.025 0.288277 8.3724 0.00651579C8.1413 -0.0346403 7.92285 0.123652 7.8817 0.35476C7.8437 0.589033 7.99883 0.807477 8.23311 0.848633C9.70839 1.09873 11.0539 1.79839 12.1239 2.86528C13.194 3.93534 13.8905 5.28083 14.1406 6.75611C14.1754 6.96506 14.3559 7.11069 14.5616 7.11069C14.587 7.11069 14.6091 7.10752 14.6345 7.10436C14.8656 7.06953 15.0239 6.84792 14.9827 6.61682Z" fill="#F95738"/>
</g>
<defs>
<clipPath id="clip0_1975_6842">
<rect width="15" height="15" fill="white"/>
</clipPath>
</defs>
</svg>
