<svg width="20" height="19" viewBox="0 0 20 19" fill="none" xmlns="http://www.w3.org/2000/svg">
<path d="M19.9713 7.21479C19.9024 7.00352 19.7191 6.84955 19.4984 6.81765L13.2983 5.92038L10.5254 0.325257C10.4268 0.126081 10.223 0 10 0C9.77699 0 9.57332 0.126081 9.47461 0.325257L6.70165 5.92038L0.501673 6.81765C0.281009 6.84955 0.0976117 7.00352 0.0287057 7.21476C-0.0402394 7.42603 0.0172604 7.65792 0.176986 7.81295L4.66322 12.1682L3.60432 18.3179C3.56658 18.5368 3.65697 18.758 3.8374 18.8886C3.93947 18.9624 4.06037 19 4.18185 19C4.27514 19 4.36873 18.9779 4.45443 18.933L10 16.0294L15.5453 18.9329C15.7428 19.0363 15.982 19.0191 16.1624 18.8885C16.3428 18.758 16.4333 18.5367 16.3956 18.3178L15.3363 12.1682L19.823 7.81291C19.9827 7.65792 20.0403 7.42603 19.9713 7.21479Z" fill="#EE964B"/>
</svg>
