<svg width="13" height="15" viewBox="0 0 13 15" fill="none" xmlns="http://www.w3.org/2000/svg">
<path d="M9.07178 0.555664C9.10564 0.555664 9.13949 0.555664 9.17526 0.555664C9.25829 1.55865 8.86676 2.30807 8.39091 2.85078C7.92401 3.38974 7.28466 3.91247 6.25058 3.83315C6.1816 2.84453 6.57377 2.15069 7.04897 1.60923C7.48969 1.10462 8.29766 0.655587 9.07178 0.555664Z" fill="white"/>
<path d="M12.2021 10.9952C12.2021 11.0052 12.2021 11.0139 12.2021 11.0233C11.9115 11.8839 11.497 12.6214 10.9911 13.3059C10.5293 13.9273 9.96343 14.7635 8.95299 14.7635C8.07986 14.7635 7.49991 14.2146 6.60507 14.1996C5.6585 14.1846 5.13794 14.6586 4.27249 14.7779C4.17348 14.7779 4.07448 14.7779 3.9774 14.7779C3.34188 14.688 2.82899 14.1958 2.45534 13.7524C1.35356 12.4422 0.502151 10.7497 0.34375 8.5839C0.34375 8.37156 0.34375 8.15985 0.34375 7.94751C0.410815 6.39745 1.18111 5.13716 2.20497 4.52638C2.74532 4.20163 3.48814 3.92496 4.31528 4.04862C4.66977 4.10233 5.03192 4.22099 5.34936 4.3384C5.65019 4.45144 6.0264 4.65191 6.3828 4.64129C6.62423 4.63442 6.86439 4.51139 7.10774 4.42458C7.82055 4.1729 8.5193 3.88437 9.44033 4.01989C10.5472 4.18352 11.3328 4.6644 11.8183 5.40633C10.8819 5.98901 10.1416 6.86709 10.2681 8.36656C10.3805 9.72864 11.1904 10.5255 12.2021 10.9952Z" fill="white"/>
</svg>
