<svg width="15" height="15" viewBox="0 0 15 15" fill="none" xmlns="http://www.w3.org/2000/svg">
<g clip-path="url(#clip0_4641_12941)">
<path d="M3.08115 0.227452C2.52883 -0.0800861 1.88034 -0.0729754 1.33154 0.231896L7.76353 6.20934L9.92429 4.03257L3.08115 0.227452Z" fill="white"/>
<path d="M0.688451 0.843384C0.531401 1.10204 0.441406 1.39802 0.441406 1.71178V12.5076C0.441406 12.8116 0.52346 13.1014 0.671687 13.3547L7.13985 6.8386L0.688451 0.843384Z" fill="white"/>
<path d="M12.7892 5.62533L10.7282 4.47961L8.41211 6.81193L11.2505 9.44911L12.7901 8.59316C13.3442 8.28385 13.6759 7.72921 13.6759 7.1088C13.675 6.48839 13.3442 5.93376 12.7892 5.62533Z" fill="white"/>
<path d="M7.78854 7.44128L1.30273 13.9751C1.58419 14.1369 1.893 14.2222 2.20357 14.2222C2.50355 14.2222 2.8053 14.1458 3.08146 13.992L10.4372 9.90248L7.78854 7.44128Z" fill="white"/>
</g>
<defs>
<clipPath id="clip0_4641_12941">
<rect width="14.1176" height="14.2222" fill="white"/>
</clipPath>
</defs>
</svg>
