<svg width="26" height="25" viewBox="0 0 26 25" fill="none" xmlns="http://www.w3.org/2000/svg">
<path d="M25.4873 9.53427L25.4874 9.53445C25.5176 9.627 25.4927 9.72914 25.4217 9.79798L25.4217 9.79801L19.5889 15.4598L19.3997 15.6435L19.4445 15.9035L20.8215 23.898C20.8215 23.898 20.8215 23.898 20.8215 23.898C20.838 23.9939 20.7986 24.0917 20.718 24.15C20.6373 24.2084 20.5297 24.2163 20.4409 24.1699C20.4408 24.1699 20.4408 24.1698 20.4408 24.1698L13.2319 20.3953L13 20.2739L12.7681 20.3953L5.55884 24.1699L5.55876 24.1699C5.52038 24.1901 5.47852 24.2 5.43641 24.2C5.38146 24.2 5.32735 24.183 5.28179 24.1501C5.20116 24.0918 5.16183 23.994 5.17835 23.8981L5.17836 23.8981L6.55493 15.9034L6.59969 15.6435L6.41046 15.4598L0.578358 9.79808L0.578314 9.79804C0.507377 9.72919 0.482389 9.62702 0.512649 9.5343L0.512666 9.53424C0.542978 9.44132 0.624282 9.37217 0.723712 9.3578L0.723789 9.35779L8.78376 8.19134L9.04357 8.15374L9.16014 7.91852L12.765 0.644864L12.3183 0.423503L12.765 0.64486C12.8086 0.556924 12.8993 0.5 13 0.5C13.1008 0.5 13.1915 0.556946 13.235 0.64479L13.235 0.644857L16.8397 7.91851L16.9563 8.15374L17.2161 8.19134L25.2763 9.35779L25.2763 9.3578C25.3757 9.37216 25.457 9.44123 25.4873 9.53427Z" fill="#F4F6FC" stroke="#DDE2F2"/>
</svg>
