<svg width="30" height="30" viewBox="0 0 30 30" fill="none" xmlns="http://www.w3.org/2000/svg">
<path d="M15 30C23.2843 30 30 23.2843 30 15C30 6.71573 23.2843 0 15 0C6.71573 0 0 6.71573 0 15C0 23.2843 6.71573 30 15 30Z" fill="#2AABEE"/>
<path fill-rule="evenodd" clip-rule="evenodd" d="M6.78979 14.8416C11.1626 12.9364 14.0785 11.6804 15.5374 11.0736C19.7031 9.34097 20.5687 9.03997 21.1328 9.03001C21.2569 9.02784 21.5344 9.05861 21.7141 9.20445C21.9807 9.42077 21.9822 9.89034 21.9526 10.2011C21.7269 12.573 20.7501 18.3288 20.2532 20.9854C20.0429 22.1094 19.6288 22.4864 19.2281 22.5232C18.357 22.6034 17.6955 21.9475 16.8519 21.3945C15.5317 20.5291 14.7858 19.9904 13.5043 19.1459C12.0234 18.17 12.9834 17.6336 13.8274 16.757C14.0483 16.5276 17.8863 13.0367 17.9606 12.72C17.9699 12.6803 17.9785 12.5327 17.8908 12.4548C17.8031 12.3768 17.6736 12.4034 17.5802 12.4246C17.4478 12.4547 15.3388 13.8487 11.2532 16.6066C10.6545 17.0177 10.1123 17.218 9.62649 17.2075C9.09088 17.1959 8.06069 16.9047 7.29481 16.6557C6.35543 16.3504 5.60883 16.1889 5.67387 15.6703C5.70774 15.4001 6.07969 15.1239 6.78979 14.8416Z" fill="white"/>
</svg>
