<svg width="15" height="9" viewBox="0 0 15 9" fill="none" xmlns="http://www.w3.org/2000/svg">
<path d="M13.3517 5.9854L13.3436 5.97783C13.2155 5.85938 12.8232 5.47686 12.6909 5.30968C12.5357 5.10111 12.5715 4.96443 12.6879 4.75963C12.8349 4.50084 13.1296 4.10387 13.4415 3.6835C14.4403 2.33757 15.0852 1.4058 14.9524 0.743957L14.8809 0.390445L11.1921 0.39205C11.1792 0.426908 10.9867 1.27417 10.1744 2.71688C9.58536 3.76297 9.19901 4.0916 9.06294 4.14962L9.04188 4.1432C8.99759 4.08839 8.92023 3.94047 8.88841 3.55921C8.85523 3.15983 8.88464 2.67629 8.91313 2.20869C8.94644 1.66036 8.97516 1.18679 8.90638 0.847958L8.79434 0.295961C8.65896 0.274289 8.16331 0.0826843 6.78235 0.0681218C5.58679 0.0558527 5.23557 0.228882 5.0631 0.381386L4.49262 0.885797L5.21371 1.12889C5.48814 1.22142 5.57923 1.32817 5.65396 1.85735C5.70272 2.20226 5.72824 2.78189 5.67559 3.29938C5.59995 4.04137 5.41856 4.17943 5.40917 4.18677C5.37793 4.1761 5.113 4.05995 4.65306 3.08564C4.334 2.40992 4.05431 1.61059 3.84991 1.02695C3.616 0.358568 3.65811 0.500867 3.53944 0.18508L-0.0292969 0.184965L0.201645 0.783516C1.16444 3.28126 2.04781 5.23182 3.22999 6.6328C4.5361 8.18066 6.15934 8.99111 8.34585 8.99111H8.7853V8.5508C8.7853 8.13915 8.81929 7.84274 8.89219 7.618C8.93671 7.48109 8.99587 7.36792 9.05802 7.24924C9.15026 7.07449 9.24044 6.99961 9.28965 6.98849C9.33428 6.97828 9.41278 7.01108 9.49976 7.07609C9.74947 7.26265 9.94768 7.50781 10.1576 7.76741C10.4604 8.14202 10.7735 8.52924 11.2703 8.78277C11.5417 8.92128 12.0393 8.99123 12.3132 8.99123C12.3856 8.99123 14.9675 8.99111 14.9707 8.99111L14.9518 8.53268C14.9237 7.84721 14.3853 6.99009 13.3517 5.9854ZM12.3302 8.11049H12.3231C12.1343 8.11358 11.7739 8.05155 11.6691 7.99811C11.3388 7.82956 11.108 7.54393 10.8406 7.21323C10.6058 6.92279 10.3631 6.62248 10.0252 6.3701C9.75187 6.16588 9.50365 6.10614 9.30658 6.10614C9.22785 6.10614 9.15712 6.11566 9.09647 6.12942C8.8677 6.18102 8.54051 6.34591 8.28039 6.83885C8.20703 6.97909 8.12383 7.1379 8.05643 7.34567C7.98582 7.56308 7.94187 7.80467 7.92093 8.09856C6.27321 8.00476 4.98746 7.35163 3.90118 6.06429C2.89124 4.8673 2.09668 3.19308 1.25519 1.06525C1.31607 1.06525 2.84169 1.06548 2.93175 1.06548C2.95933 1.1431 2.98909 1.22819 3.02067 1.31831C3.24097 1.94794 3.54275 2.8101 3.89832 3.54533C4.40747 4.59819 4.87245 5.06774 5.40586 5.06774C5.67216 5.06774 5.911 4.95468 6.09651 4.7406C6.36098 4.43548 6.51456 3.93187 6.56606 3.20088C6.60669 2.62446 6.56892 2.05033 6.52429 1.73397C6.48744 1.47368 6.43491 1.20044 6.30674 0.955628C6.85296 0.930975 7.58436 0.969961 8.04773 1.03658C8.08984 1.26637 8.06238 1.71803 8.03583 2.15502C7.97163 3.21063 7.90536 4.29994 8.46304 4.80963C8.56111 4.8993 8.66514 4.94734 8.66811 4.94929L8.95193 5.03655C9.06145 5.00272 9.6958 5.32516 10.897 3.22485C11.2818 2.55188 11.6402 1.7764 11.8331 1.26992C12.2806 1.26901 13.805 1.27073 13.9841 1.27096C13.7304 1.83041 13.1291 2.62836 12.7362 3.158C12.3935 3.61964 12.0977 4.01833 11.9241 4.32379C11.6016 4.89127 11.6558 5.39706 11.9917 5.84322L11.997 5.8501C12.1844 6.08917 12.6473 6.53178 12.7434 6.62099C13.4389 7.29763 13.7741 7.78369 13.9337 8.11037H12.3302V8.11049Z" fill="white"/>
</svg>
