<svg width="30" height="30" viewBox="0 0 30 30" fill="none" xmlns="http://www.w3.org/2000/svg">
<path d="M15.0037 0H14.9963C6.72563 0 0 6.7275 0 15C0 18.2812 1.0575 21.3225 2.85563 23.7919L0.98625 29.3644L6.75188 27.5213C9.12375 29.0925 11.9531 30 15.0037 30C23.2744 30 30 23.2706 30 15C30 6.72938 23.2744 0 15.0037 0Z" fill="#4CAF50"/>
<path d="M23.7318 21.1818C23.3699 22.2037 21.9337 23.0512 20.788 23.2987C20.0043 23.4655 18.9805 23.5987 15.5343 22.1699C11.1262 20.3437 8.28741 15.8643 8.06616 15.5737C7.85429 15.283 6.28491 13.2018 6.28491 11.0493C6.28491 8.89679 7.37804 7.84866 7.81866 7.39866C8.18054 7.02928 8.77866 6.86053 9.35241 6.86053C9.53804 6.86053 9.70491 6.86991 9.85491 6.87741C10.2955 6.89616 10.5168 6.92241 10.8074 7.61804C11.1693 8.48991 12.0505 10.6424 12.1555 10.8637C12.2624 11.0849 12.3693 11.3849 12.2193 11.6755C12.0787 11.9755 11.9549 12.1087 11.7337 12.3637C11.5124 12.6187 11.3024 12.8137 11.0812 13.0874C10.8787 13.3255 10.6499 13.5805 10.9049 14.0212C11.1599 14.4524 12.0412 15.8905 13.3387 17.0455C15.013 18.5362 16.3705 19.0124 16.8562 19.2149C17.218 19.3649 17.6493 19.3293 17.9137 19.048C18.2493 18.6862 18.6637 18.0862 19.0855 17.4955C19.3855 17.0718 19.7643 17.0193 20.1618 17.1693C20.5668 17.3099 22.7099 18.3693 23.1505 18.5887C23.5912 18.8099 23.8818 18.9149 23.9887 19.1005C24.0937 19.2862 24.0937 20.158 23.7318 21.1818Z" fill="#FAFAFA"/>
</svg>
